<?xml version="1.0" encoding="UTF-8"?>
<svg version="1.1" xmlns="http://www.w3.org/2000/svg" width="457" height="457">
<path id="outter"  fill="#003f9b" d="M0 0C150.81 0 301.62 0 457 0c-150.81 0-301.62 0-457 0ZM136.8242 49.7305c-1.8273 2.2734-2.4981 3.9648-3.5 6.668-2.357 5.564-5.9591 7.4092-11.1992 10.0391-1.7217.9307-3.4405 1.867-5.1563 2.8086-.8456.46-1.6912.9201-2.5625 1.394C78.5469 90.9056 52.5827 125.1549 41.46 164.4836 35.1403 188.1386 32.8162 212.6334 36 237c-.7438.2604-1.4876.5208-2.2539.7891C24.8927 241.6931 20.5646 250.4944 17 259c-6.7973 19.4208-3.305 41.612 4.9839 59.96C24.3758 323.7621 27.562 327.8957 31 332c.9455 1.2568.9455 1.2568 1.9102 2.5391C40.8416 343.8788 53.06 349.8856 65 352c1.6397-.0773 1.6397-.0773 3.3125-.1563 3.6857-.1706 6.22-.1469 9.6875 1.1563 3.1325 4.332 4.9895 8.9551 7.0288 13.8696C87.5399 372.3779 91.4043 377.1671 95 382c.678.9255 1.3561 1.8511 2.0547 2.8047C99.4185 387.9935 99.4185 387.9935 102 391c.66 0 1.32 0 2 0 .2024.544.4048 1.088.6133 1.6484 1.9474 3.3024 4.6759 5.5353 7.5742 7.9766.6266.5278 1.2531 1.0556 1.8987 1.5994C140.6964 424.2554 173.2616 435.4328 207 441c1.2298.2037 2.4595.4073 3.7266.6172C243.4452 445.3786 277.4758 440.7091 307 426c.6793-.3269 1.3587-.6539 2.0586-.9907 31.8665-15.3997 58.6512-41.874 70.6641-75.6187 1.2401-3.7605 2.2999-7.5529 3.2773-11.3906.1739-.6295.3477-1.2591.5269-1.9077 7.029-26.1604 2.8449-53.8289-7.5269-78.2759-3.9085-9.3387-6.6883-18.0796-8.125-28.1289-.2481-1.635-.2481-1.635-.5012-3.303-1.0541-6.9925-2.0587-13.9942-2.9792-21.0056-.2758-2.3871-.2758-2.3871-1.3945-4.3789.5852-.0026 1.1705-.0052 1.7734-.0078 17.7985-.8017 37.3444-9.368 50.1328-21.6875 7.0118-7.7183 9.5731-13.8248 9.4219-24.2109-.88-8.297-6.2606-13.7601-12.4219-18.9609-17.0518-12.5138-40.3073-16.7288-61.1211-15.9414-15.6337.4149-15.6337.4149-19.5928-2.541-2.9608-3.503-4.6534-7.5314-6.3477-11.7559C322.8229 101.3601 319.2077 97.7324 316 94c-.5504-.6832-1.1009-1.3664-1.668-2.0703C309.5438 86.1292 303.9471 81.5724 298 77c-.5142-.4051-1.0283-.8102-1.5581-1.2275-31.9326-25.018-74.9953-32.3337-114.5669-27.96-5.4708.4866-5.4708.4866-9-2.125-.6188-.8869-1.2375-1.7737-1.875-2.6875-10.7784-7.3959-25.5106-.4451-34.1758 6.7305Z " transform="translate(0,0)"/>
<path id="face" fill="#fdfefe" d="M0 0 C1.11300445 2.49100997 1.99173238 4.84749125 2.8125 7.4375 C3.06821777 8.22809814 3.32393555 9.01869629 3.58740234 9.83325195 C8.27961294 24.84574613 11.47389265 40.32306205 14.125 55.8125 C14.28677734 56.75512695 14.44855469 57.69775391 14.61523438 58.66894531 C15.3820075 63.19290677 16.10832583 67.71897297 16.78125 72.2578125 C18.54193202 83.41474448 21.81063995 93.10015823 26.34594727 103.44506836 C37.48037835 128.88300894 37.85316632 156.22163829 28.50390625 182.34375 C23.85593428 193.64375459 17.73940281 203.52401741 10 213 C9.02933594 214.20076172 9.02933594 214.20076172 8.0390625 215.42578125 C2.97778386 221.40635336 -2.80296039 226.23304645 -9 231 C-9.8765625 231.680625 -10.753125 232.36125 -11.65625 233.0625 C-43.28055289 256.87373983 -82.93338446 265.25654558 -121.93505859 259.97973633 C-123.96088511 259.67499449 -125.9800216 259.34125753 -128 259 C-129.12003418 258.82259277 -129.12003418 258.82259277 -130.26269531 258.64160156 C-150.52319774 255.36085271 -170.06288251 249.00945829 -188 239 C-189.35544922 238.26523437 -189.35544922 238.26523437 -190.73828125 237.515625 C-217.96772999 222.05520434 -236.24716782 197.88631513 -245 168 C-245.54785156 168.2165625 -246.09570312 168.433125 -246.66015625 168.65625 C-256.38761137 172.07272204 -266.75369675 172.96767381 -276.3125 168.625 C-289.41117026 161.02952946 -296.65523991 149.39498968 -301.1953125 135.28515625 C-302.44949243 129.77428426 -302.36831522 124.18774445 -302.375 118.5625 C-302.39949219 117.48162109 -302.42398437 116.40074219 -302.44921875 115.28710938 C-302.48050336 106.68905626 -300.7049744 98.96625657 -294.73046875 92.421875 C-289.3941166 88.03715224 -282.9238903 84.42706506 -275.875 84.75 C-265.8756794 86.6058739 -258.52279838 93.61967855 -252 101 C-251.01 102.485 -251.01 102.485 -250 104 C-247.67699616 104.41609272 -247.67699616 104.41609272 -244.9921875 104.29296875 C-243.51298828 104.2784668 -243.51298828 104.2784668 -242.00390625 104.26367188 C-240.97136719 104.23853516 -239.93882812 104.21339844 -238.875 104.1875 C-237.83472656 104.17396484 -236.79445313 104.16042969 -235.72265625 104.14648438 C-233.14792373 104.11105228 -230.5742167 104.06165221 -228 104 C-227.33359529 100.94073746 -226.68849919 97.88013795 -226.0625 94.8125 C-225.867771 93.87301514 -225.67304199 92.93353027 -225.47241211 91.96557617 C-224.3299472 86.04436629 -223.90609335 80.53680902 -224.02197266 74.51586914 C-224.18336959 63.74991593 -224.18336959 63.74991593 -221.75878906 60.16455078 C-218.31094573 56.64025621 -214.30166827 54.34254463 -210 52 C-209.37512695 51.4630249 -208.75025391 50.9260498 -208.10644531 50.37280273 C-205.42457741 48.62498827 -204.22736803 48.81970393 -201.09765625 49.29296875 C-200.13617676 49.42791748 -199.17469727 49.56286621 -198.18408203 49.7019043 C-197.15395996 49.86215088 -196.12383789 50.02239746 -195.0625 50.1875 C-192.87399437 50.49172363 -190.68518517 50.79377057 -188.49609375 51.09375 C-186.85036377 51.32578125 -186.85036377 51.32578125 -185.17138672 51.5625 C-129.64510855 59.22247617 -87.08337547 45.99027413 -39.71923828 18.05029297 C-32.77320038 13.97407431 -25.76153656 10.17935275 -18.50390625 6.69140625 C-14.06342045 4.54789415 -9.710031 2.24601646 -5.35546875 -0.06640625 C-3 -1 -3 -1 0 0 Z " transform="translate(334,163)"/>
<path id="cap1" fill="#06aeef" d="M0 0 C0.69883301 0.13390137 1.39766602 0.26780273 2.11767578 0.40576172 C21.99144676 4.32540338 42.20396449 13.84908159 56.8515625 27.95703125 C58.95925801 30.04622296 58.95925801 30.04622296 61.37890625 31.75390625 C64.9421074 34.80732005 67.54010612 38.35885619 70.3125 42.125 C70.86228516 42.85332031 71.41207031 43.58164063 71.97851562 44.33203125 C76 49.7373059 76 49.7373059 76 52 C75.1248877 52.13051758 74.24977539 52.26103516 73.34814453 52.39550781 C9.86377155 61.92358692 -53.63008711 81.93266859 -105.8996582 120.39428711 C-110.81442427 124 -110.81442427 124 -113 124 C-116.63997256 104.67838464 -116.63997256 104.67838464 -117 95 C-117.03254883 94.19272461 -117.06509766 93.38544922 -117.09863281 92.55371094 C-117.97759241 67.56107178 -115.92155578 34.7770657 -100 14 C-95.63262789 9.77926958 -91.60828152 7.74040174 -85.875 5.875 C-85.12001221 5.62129639 -84.36502441 5.36759277 -83.5871582 5.10620117 C-77.45366767 3.07823958 -71.34207084 1.25941832 -65 0 C-64.32227539 -0.13535156 -63.64455078 -0.27070312 -62.94628906 -0.41015625 C-41.97676404 -4.44940532 -20.91554727 -4.19223292 0 0 Z " transform="translate(235,69)"/>
<path id="cap2" fill="#06aeef" d="M0 0 C0.495 0.99 0.495 0.99 1 2 C0.36328125 3.85546875 0.36328125 3.85546875 -0.6875 6.1875 C-7.97200493 23.75601189 -9.41034972 42.08073037 -9.375 60.875 C-9.37717529 62.06875244 -9.37717529 62.06875244 -9.37939453 63.28662109 C-9.37665141 77.01592485 -8.09768735 90.14834402 -5.3671875 103.6328125 C-4.97178662 106.18188624 -4.76150303 108.42699487 -5 111 C-7.00576619 113.0712363 -8.86933214 114.7494056 -11.125 116.5 C-11.69476563 116.96019531 -12.26453125 117.42039062 -12.8515625 117.89453125 C-13.99700027 118.81869127 -15.14651529 119.73782057 -16.30004883 120.65185547 C-24.16596683 126.88991367 -30.31610157 133.73251137 -36 142 C-37.051875 141.47599609 -37.051875 141.47599609 -38.125 140.94140625 C-43.86970068 138.18613541 -48.62783702 136.36068847 -55 136 C-62.86979123 103.32631321 -53.02313888 66.91933354 -36.03125 38.734375 C-26.31277171 23.69387288 -14.26933372 10.80259755 0 0 Z " transform="translate(110,95)"/>
<path id="cap3" fill="#06aeef" d="M0 0 C-2.66255414 1.77503609 -5.02337701 2.94198363 -7.953125 4.1796875 C-26.46055131 12.09887386 -44.18546982 21.01386938 -61.625 31.0625 C-89.98783961 47.40004997 -118.87951594 61.22056237 -152.375 61.1875 C-153.23697998 61.18669434 -154.09895996 61.18588867 -154.98706055 61.18505859 C-160.96713334 61.12934872 -166.86828668 60.77653167 -172.8125 60.125 C-173.53421387 60.04660889 -174.25592773 59.96821777 -174.99951172 59.88745117 C-179.51801558 59.33495416 -183.67078641 58.34686645 -188 57 C-183.70668263 53.31755544 -179.07461864 50.55104572 -174.1875 47.75 C-173.34074707 47.26402344 -172.49399414 46.77804688 -171.62158203 46.27734375 C-134.6726734 25.25480838 -94.69512381 11.05491722 -53 3 C-52.20883789 2.83628906 -51.41767578 2.67257813 -50.60253906 2.50390625 C-33.88475983 -0.9116299 -16.97454354 -0.29798668 0 0 Z " transform="translate(339,139)"/>
<path id="mouth" fill="#003f9b" d="M0 0 C3.46970286 1.59216134 6.68152037 3.57599979 9.9375 5.5625 C40.47492912 23.57175307 70.56291151 28.74311636 105.28515625 19.921875 C108.79503459 19.05086418 111.42180698 18.51206459 115 19 C117.375 20.5625 117.375 20.5625 119 23 C119.59937882 27.04580703 119.3638406 29.28747882 117.5 32.9375 C106.49840925 46.41444866 92.22873462 54.91958604 75 58 C61.90493864 58.94958186 49.3809691 58.61385618 37 54 C36.3498291 53.75862305 35.6996582 53.51724609 35.02978516 53.26855469 C16.3587945 46.16813011 -2.83579633 33.32840734 -12 15 C-12.55512815 10.36786507 -12.6364242 7.01827873 -10.125 3 C-6.71702129 -0.20750937 -4.64921793 -0.54543897 0 0 Z " transform="translate(189,305)"/>
<path id="eye1" fill="#003f9b" d="M0 0 C4.58790802 3.51032108 8.05070317 7.49610306 10 13 C10.48685494 17.03394092 10.64684377 19.06567011 8.3125 22.4375 C5.48005782 24.35131228 4.36872151 24.3888856 1 24 C-1.7890625 22.50390625 -1.7890625 22.50390625 -4.625 20.5625 C-11.47331137 15.91878202 -16.78087235 15.15494893 -25 16 C-32.66196836 18.20520675 -37.44611615 23.08991537 -42.578125 28.98828125 C-45 31 -45 31 -48.109375 31.48046875 C-51 31 -51 31 -52.84375 29.8515625 C-55.41111894 25.74030277 -54.58248355 20.62526544 -54 16 C-51.57884535 7.77576041 -45.18303618 3.1218718 -38 -1 C-25.47921524 -7.00659269 -12.06098786 -7.12206702 0 0 Z " transform="translate(219,234)"/>
<path id="eye2" fill="#003f9b" d="M0 0 C4.94327939 3.58266992 8.25616439 6.81579019 10.5859375 12.48828125 C11.26596834 18.31711702 11.26596834 18.31711702 9.4609375 21.42578125 C6.71640488 22.9810164 4.71019074 22.73383924 1.5859375 22.48828125 C-1.16796875 21.17578125 -1.16796875 21.17578125 -3.9765625 19.48828125 C-10.56119508 16.04891361 -16.08506592 15.26993001 -23.4140625 16.48828125 C-30.56240686 18.76172621 -35.11036952 23.97081907 -39.95703125 29.4765625 C-42.4140625 31.48828125 -42.4140625 31.48828125 -45.52734375 31.96875 C-48.4140625 31.48828125 -48.4140625 31.48828125 -50.26171875 30.34765625 C-52.78870545 26.2702133 -51.93949244 21.0798224 -51.4140625 16.48828125 C-50.53982962 13.69385828 -49.27898201 11.729505 -47.4140625 9.48828125 C-46.92808594 8.89402344 -46.44210937 8.29976562 -45.94140625 7.6875 C-34.61725581 -4.81457626 -14.60255733 -9.14431988 0 0 Z " transform="translate(321.4140625,218.51171875)"/>
<path id="nose" fill="#003f9b" d="M0 0 C5.7036603 3.9107999 9.17737312 8.95035341 11.26171875 15.55078125 C11.99782217 22.07055442 10.74739917 26.96752323 7.26171875 32.55078125 C4.68171339 35.73169925 2.20539571 38.16063994 -1.8984375 38.984375 C-4.05078125 39.05078125 -4.05078125 39.05078125 -7.73828125 38.55078125 C-8.39828125 37.89078125 -9.05828125 37.23078125 -9.73828125 36.55078125 C-9.47729912 33.09276798 -9.04091172 30.22329342 -7.61328125 27.05078125 C-6.40339595 23.59396611 -6.93938027 21.07926057 -7.73828125 17.55078125 C-9.55615843 15.30819928 -9.55615843 15.30819928 -12.1640625 15.3203125 C-13.11667969 15.33449219 -14.06929688 15.34867187 -15.05078125 15.36328125 C-15.99566406 15.36972656 -16.94054687 15.37617188 -17.9140625 15.3828125 C-20.61928807 15.5437042 -23.09171281 15.99134402 -25.73828125 16.55078125 C-32.70108678 17.32867711 -32.70108678 17.32867711 -35.73828125 15.05078125 C-37.17727474 11.45329751 -37.64996861 8.35471818 -36.73828125 4.55078125 C-27.7291126 -4.71579222 -10.8705174 -6.05813764 0 0 Z " transform="translate(294.73828125,272.44921875)"/>
</svg>
