<svg width="256" height="256" viewBox="0 0 256 256" xmlns="http://www.w3.org/2000/svg">
  <!-- defs -->
  <defs>
    <!-- leather gloss -->
    <radialGradient id="leather" cx="35%" cy="30%" r="75%">
      <stop offset="0%"  stop-color="#ff6f6f"/>
      <stop offset="35%" stop-color="#cc2429"/>
      <stop offset="100%" stop-color="#8e1317"/>
    </radialGradient>

    <!-- subtle vignette -->
    <radialGradient id="vignette" cx="50%" cy="50%" r="55%">
      <stop offset="65%" stop-color="rgba(0,0,0,0)" />
      <stop offset="100%" stop-color="rgba(0,0,0,.25)" />
    </radialGradient>

    <!-- seam tape -->
    <linearGradient id="seamBase" x1="0" y1="0" x2="1" y2="0">
      <stop offset="0"   stop-color="#5e0d10"/>
      <stop offset="0.5" stop-color="#7b0f13"/>
      <stop offset="1"   stop-color="#5e0d10"/>
    </linearGradient>

    <!-- stitch color -->
    <linearGradient id="stitch" x1="0" y1="0" x2="1" y2="1">
      <stop offset="0"   stop-color="#f7e4c7"/>
      <stop offset="1"   stop-color="#e6caa1"/>
    </linearGradient>

    <!-- highlight sheen -->
    <linearGradient id="sheen" x1="0" y1="0" x2="0" y2="1">
      <stop offset="0"   stop-color="rgba(255,255,255,.9)"/>
      <stop offset="100%" stop-color="rgba(255,255,255,0)"/>
    </linearGradient>
  </defs>

  <!-- ball -->
  <circle cx="128" cy="128" r="120" fill="url(#leather)"/>
  <circle cx="128" cy="128" r="120" fill="url(#vignette)"/>

  <!-- seam group rotated to match photo angle -->
  <g transform="rotate(-28 128 128)">
    <!-- three leather tapes -->
    <rect x="-10" y="108" width="276" height="10" rx="5" fill="url(#seamBase)"/>
    <rect x="-10" y="122" width="276" height="10" rx="5" fill="url(#seamBase)"/>
    <rect x="-10" y="136" width="276" height="10" rx="5" fill="url(#seamBase)"/>

    <!-- stitch rails (thin light lines along edges) -->
    <g stroke="url(#stitch)" stroke-width="2">
      <line x1="-10" y1="106" x2="266" y2="106" opacity=".85"/>
      <line x1="-10" y1="120" x2="266" y2="120" opacity=".85"/>
      <line x1="-10" y1="134" x2="266" y2="134" opacity=".85"/>
      <line x1="-10" y1="118" x2="266" y2="118" opacity=".85"/>
      <line x1="-10" y1="132" x2="266" y2="132" opacity=".85"/>
      <line x1="-10" y1="146" x2="266" y2="146" opacity=".85"/>
    </g>

    <!-- stitches (short dashes with round caps) -->
    <g stroke="url(#stitch)" stroke-width="4" stroke-linecap="round" stroke-dasharray="1 10">
      <line x1="-10" y1="112" x2="266" y2="112"/>
      <line x1="-10" y1="126" x2="266" y2="126"/>
      <line x1="-10" y1="140" x2="266" y2="140"/>
    </g>
  </g>

  <!-- specular highlight -->
  <ellipse cx="96" cy="70" rx="54" ry="36" fill="url(#sheen)" transform="rotate(-10 96 70)"/>
</svg>