<?xml version="1.0" encoding="utf-8"?>
<!-- Svg Vector Icons : http://www.onlinewebfonts.com/icon -->
<!DOCTYPE svg PUBLIC "-//W3C//DTD SVG 1.1//EN" "http://www.w3.org/Graphics/SVG/1.1/DTD/svg11.dtd">
<svg version="1.1" xmlns="http://www.w3.org/2000/svg" xmlns:xlink="http://www.w3.org/1999/xlink" x="0px" y="0px" viewBox="0 0 256 256" enable-background="new 0 0 256 256" xml:space="preserve">
<metadata> Svg Vector Icons : http://www.onlinewebfonts.com/icon </metadata>
<g><g><g><path fill="#000000" d="M112.4,10.7c-27,3.7-50.8,15.9-69.7,35.4c-16.3,17-26.8,37.7-31.3,61.5c-1.4,7.2-1.9,25.6-1,33.4c3.1,27,14.8,51.2,34.1,70.5c18.8,18.8,41.9,30.2,68.4,33.8c7,0.9,23.1,0.9,30.2,0c26.6-3.6,49.5-14.9,68.4-33.8c18.9-18.9,30.2-41.8,33.8-68.4c0.9-7,0.9-23.1,0-30.2c-3.6-26.6-14.9-49.4-33.8-68.4c-18.8-18.8-41.9-30.2-68.4-33.8C136.3,9.8,119.1,9.8,112.4,10.7z M140.8,25.3c11.7,1.6,21.6,4.5,32.1,9.6c23.9,11.5,42.5,32.1,51.9,57.2c7.5,20,8.4,43.2,2.5,64c-13.9,49.2-62.2,81.1-112.7,74.6c-6.4-0.8-18.3-3.6-19.1-4.4c-0.7-0.7,1-4.2,3.8-7.6c5.1-6.6,14.6-12.2,31-18.6c19.7-7.7,22.6-8.9,28.9-12.1c3.6-1.8,8.3-4.4,10.4-5.9c20.6-13.6,29.6-33.3,27.1-59.3c-1.7-16.6-7.6-30.5-17.9-41.4c-6.1-6.4-11.6-10.5-19.3-14.2c-11.5-5.6-21.4-7.5-36.2-7.1c-7.5,0.2-10,0.5-14.1,1.6c-6.6,1.7-12,4-16.6,7.1c-12.7,8.4-21.8,21.4-30.8,44.5c-1.6,4-4.1,10.5-5.6,14.3c-5.6,14.4-9.8,21.9-15.5,27.6c-4,3.9-10.2,7.5-10.9,6.3c-0.8-1.4-3.6-12.6-4.5-18.5c-1.2-7.5-1.2-21.8,0-29.6c7-46.1,42.9-81.6,88.8-87.8C121.3,24.3,133.3,24.3,140.8,25.3z M134.2,75.5c19.4,2.2,34.3,12.6,42.2,29.5c3.3,7.1,4.6,13.1,4.9,22.7c0.6,15.8-2.5,25.2-11.1,34.2c-8,8.4-15.8,12.6-41.2,22.3c-20,7.6-30.4,13.4-37.9,20.8c-4,4-7.8,9.3-9.2,12.8c-0.5,1.2-1.1,2.2-1.4,2.2c-0.3,0-2.7-1.3-5.4-2.9c-15.2-9-28.9-22.9-37.6-38.3l-1.7-3l2.2-0.9c6.9-2.8,15.1-10,20.4-17.9c4.5-6.8,8.7-15.5,14.5-30.7c5.4-14,8.5-21.4,11.5-26.5c6.9-12.1,15.4-19.7,26-22.8C117.3,75,125.6,74.5,134.2,75.5z"/></g></g></g>
</svg>